<svg width="63" height="62" viewBox="0 0 63 62" fill="none" xmlns="http://www.w3.org/2000/svg">
<g filter="url(#filter0_d_15_73)">
<path d="M37.3333 25.6666C39.6539 25.6666 41.8795 26.5885 43.5204 28.2294C45.1614 29.8704 46.0833 32.096 46.0833 34.4166V44.625H40.2499V34.4166C40.2499 33.6431 39.9426 32.9012 39.3956 32.3542C38.8487 31.8073 38.1068 31.5 37.3333 31.5C36.5597 31.5 35.8178 31.8073 35.2709 32.3542C34.7239 32.9012 34.4166 33.6431 34.4166 34.4166V44.625H28.5833V34.4166C28.5833 32.096 29.5051 29.8704 31.1461 28.2294C32.787 26.5885 35.0126 25.6666 37.3333 25.6666V25.6666Z" stroke="#2F7B86" stroke-width="3" stroke-linecap="round" stroke-linejoin="round"/>
<path d="M22.7501 27.125H16.9167V44.625H22.7501V27.125Z" stroke="#2F7B86" stroke-width="3" stroke-linecap="round" stroke-linejoin="round"/>
<path d="M19.8334 22.75C21.4442 22.75 22.7501 21.4442 22.7501 19.8334C22.7501 18.2225 21.4442 16.9167 19.8334 16.9167C18.2226 16.9167 16.9167 18.2225 16.9167 19.8334C16.9167 21.4442 18.2226 22.75 19.8334 22.75Z" stroke="#2F7B86" stroke-width="3" stroke-linecap="round" stroke-linejoin="round"/>
</g>
<defs>
<filter id="filter0_d_15_73" x="-1" y="-1" width="65" height="65" filterUnits="userSpaceOnUse" color-interpolation-filters="sRGB">
<feFlood flood-opacity="0" result="BackgroundImageFix"/>
<feColorMatrix in="SourceAlpha" type="matrix" values="0 0 0 0 0 0 0 0 0 0 0 0 0 0 0 0 0 0 127 0" result="hardAlpha"/>
<feOffset/>
<feGaussianBlur stdDeviation="7.5"/>
<feColorMatrix type="matrix" values="0 0 0 0 0 0 0 0 0 0 0 0 0 0 0 0 0 0 0.25 0"/>
<feBlend mode="normal" in2="BackgroundImageFix" result="effect1_dropShadow_15_73"/>
<feBlend mode="normal" in="SourceGraphic" in2="effect1_dropShadow_15_73" result="shape"/>
</filter>
</defs>
</svg>
